<svg xmlns="http://www.w3.org/2000/svg" width="179" height="40" fill="none"><path fill="#000" d="M43.546 18.873h5.463c.329 0 .657.014.972.041.316.028.617.069.918.123.301.055.575.124.85.22.273.082.52.191.766.314.246.124.48.26.684.425.22.164.411.329.59.52.177.192.328.411.478.644.137.233.26.493.357.767.095.274.164.575.219.89s.068.657.068 1.027-.027.767-.096 1.109c-.055.342-.15.644-.26.931s-.26.534-.424.767a4 4 0 0 1-.548.63 4 4 0 0 1-.671.493 7 7 0 0 1-.767.37c-.274.11-.561.192-.863.274a18 18 0 0 1-.917.178c-.315.04-.644.068-.972.095-.329.014-.657.028-1 .028h-1.808v5.93h-3.053V18.913zm5.45 7.614c.232 0 .451 0 .67-.041.206-.028.398-.069.59-.11.177-.055.355-.11.506-.191a5 5 0 0 0 .425-.275 2.1 2.1 0 0 0 .575-.835c.068-.164.11-.356.15-.561.028-.206.055-.425.055-.657s0-.384-.027-.548a5 5 0 0 0-.096-.48 1.8 1.8 0 0 0-.164-.41 3 3 0 0 0-.22-.343c-.082-.11-.178-.191-.273-.274-.11-.082-.22-.15-.343-.219a2 2 0 0 0-.383-.164c-.137-.041-.274-.082-.425-.11a5 5 0 0 0-.479-.068 6 6 0 0 0-.52-.027H46.64v5.3h2.396zM56.965 23.09h2.753v2.164c.082-.164.164-.301.246-.452.082-.136.178-.273.274-.397.096-.123.205-.233.301-.356.11-.11.22-.219.329-.301.11-.096.233-.178.356-.246.123-.069.26-.151.397-.206.137-.068.274-.123.425-.164s.3-.082.451-.11.315-.054.48-.068.342-.028.506-.028v2.548c-.219 0-.438 0-.643.027-.206.014-.411.04-.603.068-.191.041-.383.082-.548.123-.178.055-.342.11-.492.192-.151.069-.302.165-.425.26q-.205.144-.37.33c-.11.122-.205.26-.3.41-.097.15-.165.315-.22.493s-.096.37-.137.589-.055.438-.055.684v5.943h-2.752V23.091zM64.278 28.883c0-.356.027-.712.082-1.04.055-.343.137-.658.246-.973.11-.301.247-.602.397-.876s.329-.548.534-.794a6.25 6.25 0 0 1 2.26-1.726c.301-.137.603-.246.917-.342s.644-.165.972-.206a8 8 0 0 1 1.028-.068c.356 0 .684.027 1.026.068.33.042.644.124.96.206.314.096.602.205.89.342a5.9 5.9 0 0 1 2.135 1.726q.288.369.493.78c.137.274.26.562.37.876.096.302.178.617.233.945q.082.493.082 1.027c0 .356-.027.712-.082 1.055a7 7 0 0 1-.233.958c-.11.302-.233.603-.383.877-.151.273-.329.548-.52.78a6 6 0 0 1-.63.685q-.35.308-.74.575t-.822.452a5 5 0 0 1-.903.329 6 6 0 0 1-.973.205 8 8 0 0 1-1.013.069c-.342 0-.698-.028-1.027-.069a8 8 0 0 1-.972-.205 6.5 6.5 0 0 1-.904-.343 6 6 0 0 1-.822-.465 8 8 0 0 1-.739-.575 6 6 0 0 1-.63-.672 6 6 0 0 1-.52-.78 6 6 0 0 1-.384-.863 5.3 5.3 0 0 1-.233-.945 6 6 0 0 1-.082-1.027zm6.394 3.82c.233 0 .452-.013.644-.054.206-.041.397-.082.575-.15a2.8 2.8 0 0 0 .917-.576c.138-.123.247-.246.357-.397.11-.137.205-.301.287-.452.082-.164.15-.329.22-.507.054-.177.109-.355.15-.547s.069-.384.096-.575c.013-.192.027-.398.027-.603s0-.424-.027-.63a8 8 0 0 0-.096-.589 4 4 0 0 0-.164-.561 3 3 0 0 0-.233-.507 4 4 0 0 0-.301-.452 2.4 2.4 0 0 0-.37-.383 3 3 0 0 0-.425-.315 2 2 0 0 0-.492-.233 6 6 0 0 0-.576-.15 3.2 3.2 0 0 0-.643-.055c-.233 0-.452.013-.644.055a3.5 3.5 0 0 0-.575.15 2.8 2.8 0 0 0-.917.575c-.124.123-.247.26-.343.398-.11.15-.205.3-.274.465-.082.164-.15.342-.205.52s-.11.37-.15.562a4 4 0 0 0-.083.602c-.014.206-.027.411-.027.617 0 .205 0 .396.027.602s.055.397.096.575q.062.288.164.534c.069.178.151.343.233.493.082.165.178.301.301.452.11.137.233.26.37.384.137.109.274.219.425.315.15.095.314.178.492.232.178.069.37.11.562.15.205.028.41.056.63.056zM89.296 31.348a5.1 5.1 0 0 1-.616 1.287c-.124.192-.275.37-.425.52-.15.165-.315.315-.48.452q-.245.205-.533.37c-.192.11-.384.206-.59.301-.205.096-.41.165-.63.233a6 6 0 0 1-.656.164c-.22.042-.452.069-.685.096-.233.028-.466.028-.712.028-.37 0-.712-.028-1.054-.069a6.6 6.6 0 0 1-.96-.205 5.432 5.432 0 0 1-1.63-.808 7 7 0 0 1-.656-.575 4.5 4.5 0 0 1-.547-.685 5.4 5.4 0 0 1-.425-.78 7 7 0 0 1-.315-.877 7 7 0 0 1-.192-.958 9 9 0 0 1-.068-1.041c0-.356.027-.671.068-1s.11-.63.206-.93c.096-.302.205-.59.342-.863a5.6 5.6 0 0 1 .466-.781q.267-.37.575-.698c.205-.22.438-.411.67-.59.247-.177.494-.328.767-.479a4.7 4.7 0 0 1 .863-.342 7 7 0 0 1 .945-.219 6 6 0 0 1 1-.068c.342 0 .465 0 .698.027.22.027.452.055.657.096.22.04.425.096.63.15.206.055.411.137.603.22s.383.178.561.273c.178.11.356.22.52.343s.316.274.466.424q.226.226.41.493c.124.178.247.37.357.562.11.205.205.41.287.63l-2.218.972a4 4 0 0 0-.15-.37 1.7 1.7 0 0 0-.206-.342c-.068-.11-.15-.206-.233-.302a2.4 2.4 0 0 0-.26-.26c-.096-.082-.192-.15-.287-.219-.11-.068-.206-.137-.33-.191-.108-.055-.218-.11-.341-.151a3.396 3.396 0 0 0-.767-.178c-.137-.014-.26-.028-.397-.028-.22 0-.439.014-.63.055a3 3 0 0 0-.548.165c-.178.068-.329.15-.48.246-.136.096-.273.22-.396.342q-.186.185-.329.411a5 5 0 0 0-.26.466 6 6 0 0 0-.192.52c-.055.178-.096.37-.137.548a4 4 0 0 0-.082.575 9 9 0 0 0-.027.589c0 .192 0 .397.027.602q.02.288.082.576c.041.191.082.37.15.547q.083.268.206.493c.069.15.165.301.26.438.096.137.22.274.343.384.123.123.26.219.397.315s.301.164.48.232c.177.069.355.11.547.151s.41.055.63.055c.219 0 .315 0 .452-.027.15-.014.287-.041.424-.069.137-.027.274-.068.397-.123s.247-.11.356-.178c.11-.069.22-.137.329-.22a2.7 2.7 0 0 0 .561-.56c.082-.11.165-.22.233-.343.069-.123.137-.247.192-.383l.164-.411 2.095.917zM99.182 32.8a3.7 3.7 0 0 1-.506.753c-.096.11-.206.219-.315.3-.11.097-.233.179-.356.261s-.26.15-.384.22a5 5 0 0 1-.41.177c-.137.055-.288.096-.425.137a5.3 5.3 0 0 1-.917.15c-.165.014-.315.028-.48.028-.26 0-.52-.014-.753-.055a4.4 4.4 0 0 1-.67-.15 5 5 0 0 1-.603-.247 3 3 0 0 1-.52-.328 2.7 2.7 0 0 1-.453-.425 3.3 3.3 0 0 1-.37-.493 4 4 0 0 1-.287-.561 4.4 4.4 0 0 1-.205-.644 6 6 0 0 1-.124-.698 7 7 0 0 1-.04-.753v-7.368h2.752v7.039c0 .164 0 .301.027.452.014.137.041.287.069.41.027.138.068.26.11.37q.06.185.164.329a1.1 1.1 0 0 0 .205.287c.068.083.164.165.246.233.096.069.192.137.302.192s.233.096.356.137.26.069.397.082c.137.014.287.028.452.028.164 0 .342 0 .493-.028.164-.027.301-.054.451-.096.137-.04.274-.096.411-.15.137-.055.247-.137.356-.206a3 3 0 0 0 .316-.26c.095-.096.177-.205.26-.315.068-.11.136-.233.205-.356s.11-.26.15-.397c.042-.137.07-.288.096-.438.028-.15.028-.315.028-.48v-6.819h2.739v11.503h-2.74v-1.808zM104.947 23.09h2.753v2.164c.082-.164.164-.301.246-.452.082-.136.178-.273.274-.397.096-.123.205-.233.301-.356.11-.11.219-.219.329-.301.11-.096.233-.178.356-.246.123-.069.26-.151.397-.206.137-.068.274-.123.425-.164s.301-.082.451-.11.315-.054.48-.068a6 6 0 0 1 .506-.028v2.548c-.219 0-.438 0-.643.027a8 8 0 0 0-.603.068c-.191.041-.383.082-.547.123-.178.055-.343.11-.493.192a2.2 2.2 0 0 0-.425.26q-.206.144-.369.33a3 3 0 0 0-.302.41c-.096.15-.164.315-.219.493s-.096.37-.137.589-.055.438-.055.684v5.943h-2.752V23.091zM123.776 32.101a6 6 0 0 1-.315.575 5 5 0 0 1-.383.493c-.137.15-.288.288-.438.425a6 6 0 0 1-.48.356c-.164.11-.342.205-.52.287s-.37.165-.562.22a8 8 0 0 1-.588.178c-.206.04-.398.082-.603.109s-.411.055-.616.069a10 10 0 0 1-.63.027c-.37 0-.712-.028-1.054-.069a7 7 0 0 1-.959-.205 6 6 0 0 1-.876-.342 5 5 0 0 1-.767-.466 5.4 5.4 0 0 1-.671-.575 4.5 4.5 0 0 1-.562-.685 7 7 0 0 1-.452-.78 5.5 5.5 0 0 1-.328-.877 10 10 0 0 1-.205-.958 8 8 0 0 1-.069-1.04c0-.357.027-.672.069-.987.041-.329.109-.63.205-.931q.123-.452.328-.863t.452-.78a5.418 5.418 0 0 1 1.959-1.753c.273-.137.547-.26.849-.356a6.018 6.018 0 0 1 1.93-.287c.343 0 .726.027 1.055.068.329.04.643.11.945.191.301.083.575.192.835.33.26.136.493.287.726.465.219.178.424.37.602.589s.343.465.493.725c.151.26.274.548.384.863.109.301.205.644.274 1 .068.356.136.726.164 1.122.027.398.054.822.054 1.26h-8.517c0 .192 0 .384.027.562.028.178.055.356.097.534.04.178.095.328.164.493a2.76 2.76 0 0 0 .534.822 2 2 0 0 0 .356.328c.123.096.274.192.424.26.151.069.315.137.48.192.178.055.356.096.547.123.192.028.384.041.603.041.315 0 .616-.027.89-.096a3.3 3.3 0 0 0 .794-.3 3 3 0 0 0 .671-.521c.206-.206.37-.466.521-.754l2.149.96zm-2.465-4.45c0-.178-.027-.343-.054-.493a5 5 0 0 0-.11-.466 2 2 0 0 0-.164-.41 3 3 0 0 0-.219-.37c-.083-.11-.165-.22-.261-.315a3 3 0 0 0-.301-.26 2 2 0 0 0-.356-.206 3 3 0 0 0-.397-.15 4 4 0 0 0-.425-.097c-.15-.027-.301-.027-.479-.027s-.342 0-.493.041a4 4 0 0 0-.452.096 1.8 1.8 0 0 0-.41.165 5 5 0 0 0-.37.219c-.11.082-.219.178-.329.273a2 2 0 0 0-.274.33c-.082.109-.164.232-.233.369-.068.123-.137.26-.191.41a4.575 4.575 0 0 0-.233.904h5.738zM126.268 23.09h2.753v1.767c.068-.123.15-.26.233-.37a3.2 3.2 0 0 1 .561-.643c.11-.096.219-.178.329-.26.109-.082.232-.15.356-.22.123-.068.26-.123.383-.177.137-.055.26-.096.397-.151.137-.041.274-.082.425-.096.137-.027.287-.041.438-.055s.301-.027.452-.027c.15 0 .287 0 .424.027.137.014.274.028.411.055s.274.055.397.096c.137.041.26.082.397.137.124.055.247.11.37.178s.233.137.342.219.206.178.302.274a3 3 0 0 1 .506.67c.069.124.137.261.192.398a4 4 0 0 1 .274-.37c.096-.123.205-.233.315-.342.109-.11.233-.206.342-.301.123-.096.247-.178.37-.26s.26-.165.397-.233c.137-.069.288-.137.425-.192.136-.055.287-.11.451-.15.151-.042.302-.083.466-.11.151-.028.315-.055.479-.069.165-.013.329-.027.493-.027.26 0 .521.014.753.055.233.04.452.096.671.164.206.068.397.164.589.26.178.11.356.22.507.356.15.137.301.274.424.438.124.165.247.33.343.52.109.179.191.384.274.59.068.205.137.424.191.643.055.22.083.452.11.699q.04.37.041.739v7.285h-2.739V27.5c0-.137 0-.287-.027-.41a3 3 0 0 0-.069-.384c-.027-.123-.068-.233-.109-.343a2 2 0 0 0-.151-.314 1.3 1.3 0 0 0-.205-.274 1 1 0 0 0-.247-.22 2.1 2.1 0 0 0-.616-.314 1.8 1.8 0 0 0-.37-.082c-.137-.014-.273-.028-.41-.028s-.315 0-.452.028a3 3 0 0 0-.411.095c-.123.041-.247.096-.37.151q-.165.082-.328.205c-.096.082-.192.165-.275.26-.082.096-.164.192-.218.302a2.5 2.5 0 0 0-.302.712c-.027.137-.055.274-.068.41a4 4 0 0 0-.028.439v6.888h-2.752v-7.107c0-.137 0-.288-.027-.411-.014-.137-.042-.26-.069-.383-.027-.124-.068-.233-.109-.343a2 2 0 0 0-.151-.315 2 2 0 0 0-.192-.274.9.9 0 0 0-.246-.219 3 3 0 0 0-.288-.178c-.109-.054-.219-.096-.328-.137a1.5 1.5 0 0 0-.37-.082c-.137-.013-.274-.027-.425-.027s-.315 0-.452.027c-.15.027-.287.055-.41.096a4 4 0 0 0-.37.15q-.165.084-.329.206a2.5 2.5 0 0 0-.274.26 1.6 1.6 0 0 0-.219.301c-.068.11-.123.22-.178.343a2 2 0 0 0-.123.37 2.2 2.2 0 0 0-.082.41 4 4 0 0 0-.028.439v6.888h-2.752V23.132zM157.024 32.101a6 6 0 0 1-.315.575 5 5 0 0 1-.383.493c-.137.15-.288.288-.439.425-.15.123-.315.246-.479.356s-.342.205-.52.287-.37.165-.562.22a8 8 0 0 1-.588.178c-.206.04-.398.082-.603.109s-.411.055-.616.069a10 10 0 0 1-.63.027c-.37 0-.712-.028-1.055-.069a7 7 0 0 1-.958-.205 6 6 0 0 1-.876-.342 4.7 4.7 0 0 1-.767-.466 5.4 5.4 0 0 1-.671-.575 4.5 4.5 0 0 1-.562-.685 7 7 0 0 1-.452-.78 5.5 5.5 0 0 1-.328-.877 10 10 0 0 1-.206-.958 9 9 0 0 1-.068-1.04c0-.357.027-.672.068-.987.042-.329.11-.63.206-.931q.123-.452.328-.863t.452-.78a5.344 5.344 0 0 1 1.958-1.753 6 6 0 0 1 .85-.356 6.018 6.018 0 0 1 1.93-.287c.343 0 .726.027 1.055.068.328.04.643.11.945.191.301.083.575.192.835.33.26.136.493.287.726.465.219.178.424.37.602.589s.343.465.493.725c.151.26.274.548.383.863.11.301.206.644.275 1 .068.356.136.726.164 1.122.027.398.054.822.054 1.26h-8.517c0 .192 0 .384.027.562.028.178.055.356.096.534s.096.328.165.493c.068.15.137.301.232.438.096.137.192.274.302.383a2 2 0 0 0 .356.329c.123.096.274.192.424.26.151.069.315.137.479.192.179.055.357.096.548.123.192.028.384.041.603.041.315 0 .616-.027.89-.096a3.3 3.3 0 0 0 .794-.3 3 3 0 0 0 .671-.521c.206-.206.37-.466.521-.754l2.149.96zm-2.465-4.45a2.7 2.7 0 0 0-.055-.493 5 5 0 0 0-.109-.466 2 2 0 0 0-.164-.41c-.055-.124-.138-.247-.22-.37-.082-.11-.164-.22-.26-.315a3 3 0 0 0-.301-.26 2 2 0 0 0-.356-.206 3 3 0 0 0-.397-.15 4 4 0 0 0-.425-.097c-.15-.027-.301-.027-.479-.027s-.342 0-.493.041a4 4 0 0 0-.452.096q-.225.062-.411.165c-.123.068-.246.136-.369.219-.11.082-.22.178-.329.273a2 2 0 0 0-.274.33c-.082.109-.164.232-.233.369-.068.123-.137.26-.191.41a4.575 4.575 0 0 0-.233.904h5.737zM159.516 23.09h2.753v1.822c.068-.137.15-.274.246-.397s.192-.247.288-.356c.109-.11.219-.22.328-.315.124-.096.247-.192.37-.274s.26-.164.397-.233c.137-.068.274-.137.425-.192a4 4 0 0 1 .438-.136c.151-.041.301-.069.452-.096.151-.028.315-.041.479-.055s.315-.027.479-.027c.274 0 .534.013.781.054q.37.062.698.165c.219.068.425.164.603.26.191.11.356.219.52.356s.301.287.438.452c.124.164.247.342.356.52.11.192.192.383.274.603.082.205.137.438.192.657.055.233.082.465.109.712.028.246.042.493.042.753v7.203h-2.794v-6.929c0-.164 0-.315-.027-.466a4 4 0 0 0-.069-.424 2.3 2.3 0 0 0-.109-.37 1.2 1.2 0 0 0-.165-.328 1.1 1.1 0 0 0-.205-.288 2 2 0 0 0-.247-.233 2 2 0 0 0-.301-.191 1.6 1.6 0 0 0-.356-.137c-.123-.028-.26-.069-.411-.083a5 5 0 0 0-.465-.027c-.164 0-.343 0-.493.027a4 4 0 0 0-.452.096 5 5 0 0 0-.411.15c-.123.056-.246.138-.356.206a3 3 0 0 0-.315.26 3 3 0 0 0-.26.316 8 8 0 0 0-.205.355c-.055.124-.11.26-.151.398a4 4 0 0 0-.096.438c-.027.15-.027.315-.027.479v6.765h-2.753V23.077zM178.879 34.525c-.287.082-.602.15-.904.205a6 6 0 0 1-.986.069c-.342 0-.712-.028-1.027-.096a4 4 0 0 1-.862-.288 2.5 2.5 0 0 1-.685-.479 2.5 2.5 0 0 1-.507-.67 3.2 3.2 0 0 1-.315-.864 5 5 0 0 1-.109-1.054V25.09h-1.548v-2.027h1.548v-2.369l2.752-1.191v3.574h2.534v2.027h-2.534v6.271c0 .083.014.165.041.233.014.069.041.15.069.22a1 1 0 0 0 .095.191c.042.055.069.11.124.164a.7.7 0 0 0 .151.137c.054.041.109.069.177.11.069.027.137.054.219.082.069.027.165.04.247.055.096 0 .178.014.288.014h.232c.041 0 .083 0 .124-.014.041 0 .082-.014.123-.028.041 0 .082-.013.123-.027a.4.4 0 0 0 .123-.028.4.4 0 0 0 .123-.027c.042 0 .083-.027.124-.027s.082-.028.123-.041l.123-.041v2.163zM43.573 13.889l5.066-7.313h-4.546V5.14h6.93v.712l-4.944 7.312h4.793V14.6h-7.3zM51.474 11.164c0-.22.014-.425.055-.63a4 4 0 0 1 .15-.59c.069-.19.151-.355.233-.533a6 6 0 0 1 .315-.48c.123-.15.247-.287.397-.41s.288-.247.452-.356c.165-.11.329-.192.507-.274s.37-.15.547-.205a4 4 0 0 1 .59-.124 4.7 4.7 0 0 1 1.232 0c.192.028.397.069.575.124q.288.082.534.205c.164.082.329.178.48.287.15.11.3.22.424.343q.205.185.37.41a3.47 3.47 0 0 1 .657 1.575c.027.206.055.397.055.617s-.014.424-.055.63a3.5 3.5 0 0 1-.137.575 4 4 0 0 1-.233.534c-.096.164-.192.328-.315.479-.11.15-.246.288-.383.41a3.5 3.5 0 0 1-.438.343c-.165.11-.329.192-.493.274-.179.082-.357.15-.548.205a4 4 0 0 1-.589.124 4.7 4.7 0 0 1-1.232 0 4 4 0 0 1-.59-.124 4 4 0 0 1-.547-.205 4 4 0 0 1-.493-.274 4 4 0 0 1-.438-.342 3.7 3.7 0 0 1-.698-.877c-.096-.164-.165-.342-.233-.52a2.5 2.5 0 0 1-.137-.575 4 4 0 0 1-.055-.616zm3.848 2.3c.137 0 .274 0 .397-.027a2.5 2.5 0 0 0 .342-.096c.11-.041.206-.096.302-.15.096-.056.178-.124.246-.192a1.8 1.8 0 0 0 .397-.507 1.4 1.4 0 0 0 .123-.301c.042-.11.069-.22.096-.329.028-.11.041-.233.055-.342 0-.123.014-.233.014-.356 0-.124 0-.26-.014-.37 0-.123-.027-.233-.055-.356a2.5 2.5 0 0 0-.096-.342 2 2 0 0 0-.136-.302c-.055-.096-.11-.191-.179-.274a2 2 0 0 0-.218-.232c-.083-.069-.165-.137-.26-.192a1.2 1.2 0 0 0-.302-.137 2.5 2.5 0 0 0-.342-.096c-.124-.027-.247-.027-.384-.027s-.273 0-.397.027a2.5 2.5 0 0 0-.342.096c-.11.041-.206.096-.302.15a1.2 1.2 0 0 0-.246.192 1.2 1.2 0 0 0-.205.247 1 1 0 0 0-.165.287c-.04.096-.096.206-.123.315-.04.11-.069.22-.096.343a3 3 0 0 0-.055.356c0 .123-.013.246-.013.37 0 .123 0 .246.013.356 0 .123.028.232.055.356.027.11.055.219.096.328s.082.206.137.301c.055.096.11.178.178.274.068.082.137.165.22.233.081.069.163.137.26.192.095.055.19.11.3.137.11.04.22.068.343.082s.246.027.383.027zM60.28 4.536h1.656v4.245c.04-.082.096-.164.15-.246.055-.083.11-.151.178-.22.07-.068.124-.137.192-.191.069-.055.137-.11.22-.165.081-.054.15-.095.232-.137.082-.04.164-.082.247-.11.082-.026.178-.054.26-.081s.178-.041.274-.055l.287-.041c.096-.014.192 0 .288 0 .164 0 .315 0 .479.041.15.027.288.055.425.096q.204.061.37.164c.123.069.219.137.328.22.11.081.192.177.274.273s.15.206.219.315c.068.11.123.233.178.356s.096.26.123.397a4.7 4.7 0 0 1 .096.89v4.341h-1.67v-4.176c0-.096 0-.192-.014-.288 0-.096-.028-.178-.041-.26a1.2 1.2 0 0 0-.069-.233c-.027-.068-.068-.137-.11-.205a1 1 0 0 0-.136-.178 1.5 1.5 0 0 0-.165-.137 1 1 0 0 0-.191-.11 4 4 0 0 0-.22-.082 1.6 1.6 0 0 0-.246-.055c-.082 0-.178-.013-.274-.013s-.205 0-.301.013a1.6 1.6 0 0 0-.74.274.7.7 0 0 0-.177.164c-.055.055-.11.124-.151.192a3 3 0 0 0-.123.22.8.8 0 0 0-.083.232c-.027.082-.04.178-.054.26 0 .096-.014.192-.014.288V14.6H60.32V4.536zM67.81 11.164c0-.22.014-.425.055-.63s.083-.397.151-.59c.069-.19.15-.355.233-.533.096-.164.205-.329.315-.48a3 3 0 0 1 .397-.41c.15-.123.287-.247.452-.356.164-.11.328-.192.506-.274s.37-.15.548-.205a4 4 0 0 1 .589-.124 4.7 4.7 0 0 1 1.232 0c.192.028.397.069.575.124q.288.082.535.205c.164.082.328.178.479.287.15.11.301.22.424.343q.205.185.37.41a3.503 3.503 0 0 1 .657 1.575c.028.206.055.397.055.617s-.014.424-.055.63a3.6 3.6 0 0 1-.136.575 4 4 0 0 1-.233.534c-.096.164-.192.328-.315.479-.11.15-.247.288-.384.41a3.4 3.4 0 0 1-.438.343c-.164.11-.329.192-.493.274-.178.082-.356.15-.548.205a4 4 0 0 1-.589.124 4.7 4.7 0 0 1-1.232 0 4 4 0 0 1-.589-.124 4 4 0 0 1-.547-.205 4 4 0 0 1-.493-.274 3.655 3.655 0 0 1-1.137-1.219 3.6 3.6 0 0 1-.233-.52 2.5 2.5 0 0 1-.137-.575 4 4 0 0 1-.055-.616zm3.862 2.3c.137 0 .274 0 .397-.027.123-.028.233-.055.343-.096s.205-.096.3-.15c.097-.056.179-.124.247-.192a1.8 1.8 0 0 0 .397-.507c.055-.096.096-.206.124-.301.04-.11.068-.22.096-.329s.04-.233.054-.342c0-.123.014-.233.014-.356 0-.124 0-.26-.014-.37 0-.123-.027-.233-.054-.356a2.5 2.5 0 0 0-.096-.342 2 2 0 0 0-.137-.302c-.055-.096-.11-.191-.178-.274-.069-.082-.137-.164-.22-.232-.082-.069-.164-.137-.26-.192a1.2 1.2 0 0 0-.3-.137 2.5 2.5 0 0 0-.343-.096c-.123-.027-.247-.027-.383-.027-.138 0-.275 0-.398.027a2.5 2.5 0 0 0-.342.096c-.11.041-.205.096-.301.15a1.2 1.2 0 0 0-.247.192 1.2 1.2 0 0 0-.205.247 1 1 0 0 0-.165.287c-.04.096-.095.206-.123.315a3.128 3.128 0 0 0-.15.698c0 .124-.014.247-.014.37 0 .124 0 .247.014.357 0 .123.027.232.055.356.027.11.054.219.095.328s.082.206.137.301a1.748 1.748 0 0 0 .397.507c.082.069.165.137.26.192.097.055.192.11.302.137.11.04.219.068.342.082s.246.027.383.027z"/><path fill="#e32828" d="M10.311 39.715c-.205 0-.397-.055-.589-.15L.59 34.291A1.17 1.17 0 0 1 0 33.28V10.52c0-.41.22-.794.589-1.013l16.2-9.353a1.18 1.18 0 0 1 1.163 0l16.186 9.34c.356.204.589.588.589 1.012v18.692c0 .41-.22.794-.589 1.014L17.952 39.55a1.18 1.18 0 0 1-1.164 0l-5.313-3.067v2.054c0 .411-.219.794-.589 1.013-.178.11-.383.151-.588.151zm1.164-5.916 5.888 3.41 15.022-8.668V11.19L17.363 2.523 2.342 11.191v21.417l6.792 3.93v-20.76c0-.41.219-.794.588-1.013l7.066-4.08a1.18 1.18 0 0 1 1.164 0l7.066 4.08c.356.205.59.589.59 1.013v8.148c0 .41-.22.794-.59 1.013l-7.066 4.081a1.18 1.18 0 0 1-1.164 0l-5.313-3.067zm0-10.53 5.888 3.41 5.902-3.41v-6.806l-5.902-3.41-5.888 3.41z"/></svg>